<svg width="280" height="332" viewBox="0 0 280 332" fill="none" xmlns="http://www.w3.org/2000/svg">
<rect x="40" y="13" width="202" height="192" rx="33" fill="#E0AE00"/>
<line x1="142.5" y1="13" x2="142.5" y2="205" stroke="black" stroke-width="3"/>
<line x1="40" y1="107.5" x2="242" y2="107.5" stroke="black" stroke-width="3"/>
<path d="M86.4326 184.076V143.266H94.5523V184.076H86.4326ZM70.1027 167.716V159.596H110.912V167.716H70.1027Z" fill="black"/>
<path d="M105.671 86.7451L73.558 53.6825L80.1363 47.2932L112.249 80.3557L105.671 86.7451ZM79.5673 86.3406L73.178 79.7623L106.241 47.6494L112.63 54.2277L79.5673 86.3406Z" fill="black"/>
<path d="M210.857 62.5994V73.6364H172.164V62.5994H210.857Z" fill="black"/>
<path d="M172.159 158.328V150.39H210.826V158.328H172.159ZM172.159 176.922V168.984H210.826V176.922H172.159Z" fill="black"/>
<path d="M41.3918 234.462C42.0884 234.334 42.8401 234.252 43.6468 234.215C44.4718 234.178 45.1409 234.16 45.6543 234.16C46.1676 234.16 46.7818 234.178 47.4968 234.215C48.2301 234.252 48.9451 234.334 49.6418 234.462L54.5643 251.127C54.6926 251.549 54.8576 252.163 55.0593 252.97C55.2609 253.777 55.4809 254.647 55.7193 255.582C55.9576 256.499 56.1684 257.37 56.3518 258.195C56.5351 259.002 56.6543 259.616 56.7093 260.037H57.0393C57.1126 259.616 57.2409 259.002 57.4243 258.195C57.6076 257.37 57.8093 256.499 58.0293 255.582C58.2676 254.647 58.4876 253.777 58.6893 252.97C58.9093 252.163 59.0834 251.549 59.2118 251.127L64.1343 234.462C64.8676 234.334 65.5826 234.252 66.2793 234.215C66.9943 234.178 67.6084 234.16 68.1218 234.16C68.6351 234.16 69.2859 234.178 70.0743 234.215C70.8809 234.252 71.6509 234.334 72.3843 234.462L75.2993 271.917C74.8409 272.028 74.3184 272.11 73.7318 272.165C73.1451 272.238 72.5951 272.275 72.0818 272.275C71.6051 272.275 71.1376 272.257 70.6793 272.22C70.2209 272.183 69.7626 272.128 69.3043 272.055L68.0668 252.64C68.0118 251.595 67.9476 250.394 67.8743 249.037C67.8193 247.681 67.7643 246.315 67.7093 244.94C67.6726 243.565 67.6451 242.327 67.6268 241.227H67.2968L60.0643 266.28C59.6059 266.353 59.0743 266.417 58.4693 266.472C57.8643 266.509 57.3234 266.527 56.8468 266.527C56.4068 266.527 55.8843 266.509 55.2793 266.472C54.6743 266.417 54.1426 266.353 53.6843 266.28L46.4518 241.227H46.1493C46.1126 242.327 46.0668 243.565 46.0118 244.94C45.9751 246.315 45.9293 247.681 45.8743 249.037C45.8193 250.394 45.7643 251.595 45.7093 252.64L44.4718 272.055C44.0134 272.128 43.5459 272.183 43.0693 272.22C42.5926 272.257 42.1068 272.275 41.6118 272.275C41.0984 272.275 40.5576 272.238 39.9893 272.165C39.4209 272.11 38.9168 272.028 38.4768 271.917L41.3918 234.462ZM105.523 258.415C105.523 261.238 105.065 263.732 104.148 265.895C103.25 268.04 101.902 269.717 100.106 270.927C98.3272 272.138 96.1272 272.743 93.5056 272.743C90.8656 272.743 88.6564 272.128 86.8781 270.9C85.0997 269.672 83.7614 267.985 82.8631 265.84C81.9647 263.677 81.5156 261.202 81.5156 258.415C81.5156 255.592 81.9647 253.107 82.8631 250.962C83.7797 248.799 85.1272 247.112 86.9056 245.902C88.6839 244.674 90.8839 244.06 93.5056 244.06C96.1456 244.06 98.3547 244.674 100.133 245.902C101.93 247.131 103.277 248.827 104.176 250.99C105.074 253.135 105.523 255.61 105.523 258.415ZM87.8131 258.415C87.8131 260.083 87.9689 261.66 88.2806 263.145C88.6106 264.612 89.1881 265.803 90.0131 266.72C90.8381 267.618 92.0114 268.067 93.5331 268.067C95.0364 268.067 96.1914 267.618 96.9981 266.72C97.8231 265.803 98.4006 264.612 98.7306 263.145C99.0606 261.66 99.2256 260.083 99.2256 258.415C99.2256 256.747 99.0606 255.17 98.7306 253.685C98.4006 252.2 97.8231 250.999 96.9981 250.082C96.1914 249.166 95.0364 248.707 93.5331 248.707C92.0114 248.707 90.8381 249.166 90.0131 250.082C89.1881 250.999 88.6106 252.2 88.2806 253.685C87.9689 255.17 87.8131 256.747 87.8131 258.415ZM125.259 271.175C124.471 273.907 123.591 276.226 122.619 278.133C121.666 280.058 120.419 281.515 118.879 282.505C117.339 283.513 115.322 284.018 112.829 284.018C111.931 284.018 110.941 283.917 109.859 283.715C108.796 283.513 107.962 283.312 107.357 283.11C107.302 282.395 107.402 281.598 107.659 280.718C107.916 279.856 108.246 279.196 108.649 278.738C109.126 278.884 109.758 279.031 110.547 279.178C111.335 279.343 112.096 279.425 112.829 279.425C114.021 279.425 115.02 279.159 115.827 278.628C116.633 278.114 117.302 277.372 117.834 276.4C118.384 275.428 118.861 274.283 119.264 272.963L119.457 272.303C118.265 272.266 117.312 272.037 116.597 271.615C115.882 271.175 115.35 270.387 115.002 269.25L107.907 245.27C108.585 244.977 109.245 244.757 109.887 244.61C110.547 244.463 111.124 244.39 111.619 244.39C112.334 244.39 112.948 244.582 113.462 244.967C113.975 245.334 114.378 246.04 114.672 247.085L118.219 259.432C118.457 260.239 118.696 261.137 118.934 262.127C119.172 263.099 119.392 264.052 119.594 264.987C119.814 265.904 119.997 266.702 120.144 267.38C120.217 267.637 120.382 267.765 120.639 267.765L126.497 244.802C126.863 244.711 127.276 244.647 127.734 244.61C128.211 244.573 128.651 244.555 129.054 244.555C129.604 244.555 130.145 244.582 130.677 244.637C131.227 244.692 131.749 244.812 132.244 244.995L132.464 245.352L125.259 271.175ZM138.512 260.34V255.967H151.464V255.252C151.464 254.042 151.29 252.933 150.942 251.925C150.612 250.898 150.062 250.082 149.292 249.477C148.522 248.854 147.514 248.542 146.267 248.542C144.47 248.542 143.132 249.303 142.252 250.825C141.39 252.328 140.959 254.418 140.959 257.095V258.965C140.959 260.633 141.124 262.137 141.454 263.475C141.803 264.813 142.417 265.877 143.297 266.665C144.177 267.435 145.442 267.82 147.092 267.82C148.467 267.82 149.787 267.627 151.052 267.242C152.317 266.839 153.536 266.353 154.709 265.785C155.186 266.262 155.58 266.867 155.892 267.6C156.222 268.333 156.433 269.012 156.524 269.635C155.204 270.57 153.628 271.322 151.794 271.89C149.961 272.458 148.091 272.743 146.184 272.743C143.966 272.743 142.114 272.358 140.629 271.587C139.144 270.799 137.971 269.736 137.109 268.397C136.248 267.041 135.624 265.51 135.239 263.805C134.873 262.1 134.689 260.322 134.689 258.47C134.689 255.72 135.111 253.263 135.954 251.1C136.816 248.937 138.099 247.222 139.804 245.957C141.528 244.692 143.691 244.06 146.294 244.06C148.678 244.06 150.685 244.582 152.317 245.627C153.949 246.672 155.186 248.084 156.029 249.862C156.873 251.622 157.294 253.602 157.294 255.802C157.294 256.737 157.258 257.535 157.184 258.195C157.129 258.837 157.01 259.552 156.827 260.34H138.512ZM166.699 244.527C167.946 244.527 168.826 244.922 169.339 245.71C169.871 246.48 170.137 247.543 170.137 248.9V272C169.275 272.165 168.267 272.248 167.112 272.248C165.957 272.248 164.93 272.165 164.032 272V244.885L164.389 244.527H166.699ZM185.977 266.032C185.977 267.004 186.05 267.93 186.197 268.81C186.344 269.672 186.6 270.423 186.967 271.065C186.509 271.45 185.94 271.762 185.262 272C184.584 272.257 183.878 272.385 183.144 272.385C181.934 272.385 181.082 272.055 180.587 271.395C180.11 270.735 179.872 269.772 179.872 268.507V254.84C179.872 253.08 179.652 251.806 179.212 251.017C178.772 250.211 177.901 249.807 176.599 249.807C175.738 249.807 174.794 250.018 173.767 250.44C172.74 250.862 171.769 251.467 170.852 252.255C169.935 253.043 169.184 253.997 168.597 255.115V249.367C169.844 247.974 171.329 246.782 173.052 245.792C174.794 244.802 176.654 244.307 178.634 244.307C180.339 244.307 181.733 244.711 182.814 245.517C183.896 246.324 184.694 247.415 185.207 248.79C185.72 250.165 185.977 251.714 185.977 253.437V266.032ZM196.724 244.527C197.97 244.527 198.85 244.922 199.364 245.71C199.895 246.48 200.161 247.543 200.161 248.9V272C199.3 272.165 198.291 272.248 197.136 272.248C195.981 272.248 194.955 272.165 194.056 272V244.885L194.414 244.527H196.724ZM216.001 266.032C216.001 267.004 216.075 267.93 216.221 268.81C216.368 269.672 216.625 270.423 216.991 271.065C216.533 271.45 215.965 271.762 215.286 272C214.608 272.257 213.902 272.385 213.169 272.385C211.959 272.385 211.106 272.055 210.611 271.395C210.135 270.735 209.896 269.772 209.896 268.507V254.84C209.896 253.08 209.676 251.806 209.236 251.017C208.796 250.211 207.925 249.807 206.624 249.807C205.762 249.807 204.818 250.018 203.791 250.44C202.765 250.862 201.793 251.467 200.876 252.255C199.96 253.043 199.208 253.997 198.621 255.115V249.367C199.868 247.974 201.353 246.782 203.076 245.792C204.818 244.802 206.679 244.307 208.659 244.307C210.364 244.307 211.757 244.711 212.839 245.517C213.92 246.324 214.718 247.415 215.231 248.79C215.745 250.165 216.001 251.714 216.001 253.437V266.032ZM226.061 260.34V255.967H239.013V255.252C239.013 254.042 238.839 252.933 238.491 251.925C238.161 250.898 237.611 250.082 236.841 249.477C236.071 248.854 235.062 248.542 233.816 248.542C232.019 248.542 230.681 249.303 229.801 250.825C228.939 252.328 228.508 254.418 228.508 257.095V258.965C228.508 260.633 228.673 262.137 229.003 263.475C229.352 264.813 229.966 265.877 230.846 266.665C231.726 267.435 232.991 267.82 234.641 267.82C236.016 267.82 237.336 267.627 238.601 267.242C239.866 266.839 241.085 266.353 242.258 265.785C242.735 266.262 243.129 266.867 243.441 267.6C243.771 268.333 243.982 269.012 244.073 269.635C242.753 270.57 241.177 271.322 239.343 271.89C237.51 272.458 235.64 272.743 233.733 272.743C231.515 272.743 229.663 272.358 228.178 271.587C226.693 270.799 225.52 269.736 224.658 268.397C223.797 267.041 223.173 265.51 222.788 263.805C222.422 262.1 222.238 260.322 222.238 258.47C222.238 255.72 222.66 253.263 223.503 251.1C224.365 248.937 225.648 247.222 227.353 245.957C229.077 244.692 231.24 244.06 233.843 244.06C236.227 244.06 238.234 244.582 239.866 245.627C241.497 246.672 242.735 248.084 243.578 249.862C244.422 251.622 244.843 253.602 244.843 255.802C244.843 256.737 244.807 257.535 244.733 258.195C244.678 258.837 244.559 259.552 244.376 260.34H226.061ZM52.1303 298.528L52.4423 298.216H57.4823V302.728C57.4823 303.4 57.4903 303.96 57.5063 304.408C57.5223 304.84 57.5303 305.384 57.5303 306.04V323.944C57.5303 324.392 57.5223 324.816 57.5063 325.216C57.4903 325.6 57.4823 326.032 57.4823 326.512V331.072H55.2743C54.2983 331.072 53.5303 330.776 52.9703 330.184C52.4103 329.576 52.1303 328.752 52.1303 327.712V298.528ZM69.3143 312.184C69.4103 312.536 69.4823 312.928 69.5303 313.36C69.5783 313.792 69.6023 314.16 69.6023 314.464C69.6023 314.768 69.5783 315.128 69.5303 315.544C69.4823 315.96 69.4103 316.352 69.3143 316.72H60.5543C60.1863 316.72 59.7063 316.72 59.1143 316.72C58.5223 316.704 57.9143 316.696 57.2903 316.696C56.6663 316.68 56.1143 316.672 55.6343 316.672V312.256C56.1143 312.24 56.6663 312.232 57.2903 312.232C57.9143 312.216 58.5223 312.208 59.1143 312.208C59.7063 312.192 60.1863 312.184 60.5543 312.184H69.3143ZM71.9543 298.216C72.0343 298.616 72.0823 299 72.0983 299.368C72.1302 299.736 72.1462 300.072 72.1462 300.376C72.1462 300.696 72.1062 301.088 72.0262 301.552C71.9623 302 71.8583 302.432 71.7143 302.848H60.5543C60.1863 302.848 59.7063 302.848 59.1143 302.848C58.5223 302.848 57.9143 302.84 57.2903 302.824C56.6663 302.808 56.1143 302.792 55.6343 302.776V298.216H71.9543ZM72.9383 326.416C72.9383 328.048 72.6823 329.232 72.1703 329.968C71.6743 330.704 70.7223 331.072 69.3143 331.072H55.6343V326.632C56.4343 326.584 57.2263 326.536 58.0103 326.488C58.7943 326.44 59.6903 326.416 60.6983 326.416H72.9383ZM79.3886 298.288C79.8206 298.192 80.3726 298.12 81.0446 298.072C81.7166 298.024 82.2526 298 82.6526 298C83.0686 298 83.5726 298.016 84.1646 298.048C84.7726 298.08 85.3486 298.136 85.8926 298.216L84.4766 304.576L84.0446 304.648C84.1246 305.8 84.1966 307.088 84.2606 308.512C84.3246 309.936 84.3726 311.376 84.4046 312.832C84.4526 314.272 84.4766 315.592 84.4766 316.792V331C84.0286 331.08 83.5886 331.136 83.1566 331.168C82.7246 331.2 82.3246 331.216 81.9566 331.216C81.6206 331.216 81.2126 331.2 80.7326 331.168C80.2686 331.136 79.8206 331.08 79.3886 331V298.288ZM87.2366 311.296C86.6446 310.096 86.1006 308.936 85.6046 307.816C85.1086 306.68 84.6446 305.616 84.2126 304.624L81.6686 301.552L85.8926 298.216L95.6366 317.896C96.2606 319.176 96.8366 320.424 97.3646 321.64C97.9086 322.84 98.3966 323.928 98.8286 324.904L101.565 327.784L97.0526 331L87.2366 311.296ZM103.653 298.264V330.928C103.205 331.024 102.653 331.096 101.997 331.144C101.357 331.192 100.797 331.216 100.317 331.216C99.8526 331.216 99.3326 331.2 98.7566 331.168C98.1806 331.136 97.6126 331.08 97.0526 331L98.5646 324.928L98.9966 324.856C98.9006 323.544 98.8206 322.144 98.7566 320.656C98.6926 319.152 98.6446 317.688 98.6126 316.264C98.5806 314.84 98.5646 313.576 98.5646 312.472V301.384C98.5646 300.168 98.7806 299.296 99.2126 298.768C99.6606 298.24 100.437 297.976 101.541 297.976H103.341L103.653 298.264ZM109.25 328.072C109.314 327.272 109.57 326.488 110.018 325.72C110.466 324.936 110.97 324.32 111.53 323.872C112.922 324.752 114.466 325.512 116.162 326.152C117.858 326.776 119.53 327.088 121.178 327.088C123.05 327.088 124.482 326.68 125.474 325.864C126.482 325.048 126.986 324.016 126.986 322.768C126.986 321.728 126.634 320.792 125.93 319.96C125.242 319.128 124.202 318.416 122.81 317.824L117.002 315.4C115.002 314.552 113.394 313.456 112.178 312.112C110.978 310.768 110.378 309.056 110.378 306.976C110.378 305.184 110.842 303.584 111.77 302.176C112.698 300.752 113.986 299.632 115.634 298.816C117.298 297.984 119.202 297.568 121.346 297.568C123.378 297.568 125.29 297.832 127.082 298.36C128.89 298.888 130.418 299.464 131.666 300.088C131.634 300.872 131.442 301.656 131.09 302.44C130.738 303.208 130.274 303.84 129.698 304.336C128.45 303.712 127.066 303.184 125.546 302.752C124.042 302.304 122.666 302.08 121.418 302.08C119.706 302.08 118.37 302.496 117.41 303.328C116.45 304.16 115.97 305.16 115.97 306.328C115.97 307.32 116.314 308.136 117.002 308.776C117.706 309.416 118.634 309.984 119.786 310.48L125.546 312.88C126.938 313.456 128.17 314.176 129.242 315.04C130.33 315.904 131.186 316.912 131.81 318.064C132.434 319.2 132.746 320.488 132.746 321.928C132.746 323.768 132.306 325.424 131.426 326.896C130.562 328.352 129.25 329.512 127.49 330.376C125.73 331.224 123.514 331.648 120.842 331.648C118.858 331.648 116.834 331.328 114.77 330.688C112.722 330.048 110.882 329.176 109.25 328.072ZM138.802 298.528L139.114 298.216H144.154V302.728C144.154 303.4 144.162 303.96 144.178 304.408C144.194 304.84 144.202 305.384 144.202 306.04V323.944C144.202 324.392 144.194 324.816 144.178 325.216C144.162 325.6 144.154 326.032 144.154 326.512V331.072H141.946C140.97 331.072 140.202 330.776 139.642 330.184C139.082 329.576 138.802 328.752 138.802 327.712V298.528ZM155.986 312.184C156.082 312.536 156.154 312.928 156.202 313.36C156.25 313.792 156.274 314.16 156.274 314.464C156.274 314.768 156.25 315.128 156.202 315.544C156.154 315.96 156.082 316.352 155.986 316.72H147.226C146.858 316.72 146.378 316.72 145.786 316.72C145.194 316.704 144.586 316.696 143.962 316.696C143.338 316.68 142.786 316.672 142.306 316.672V312.256C142.786 312.24 143.338 312.232 143.962 312.232C144.586 312.216 145.194 312.208 145.786 312.208C146.378 312.192 146.858 312.184 147.226 312.184H155.986ZM158.626 298.216C158.706 298.616 158.754 299 158.77 299.368C158.802 299.736 158.818 300.072 158.818 300.376C158.818 300.696 158.778 301.088 158.698 301.552C158.634 302 158.53 302.432 158.386 302.848H147.226C146.858 302.848 146.378 302.848 145.786 302.848C145.194 302.848 144.586 302.84 143.962 302.824C143.338 302.808 142.786 302.792 142.306 302.776V298.216H158.626ZM159.61 326.416C159.61 328.048 159.354 329.232 158.842 329.968C158.346 330.704 157.394 331.072 155.986 331.072H142.306V326.632C143.106 326.584 143.898 326.536 144.682 326.488C145.466 326.44 146.362 326.416 147.37 326.416H159.61ZM166.181 298.216C166.597 298.136 167.061 298.08 167.573 298.048C168.085 298.016 168.533 298 168.917 298C169.333 298 169.789 298.016 170.285 298.048C170.797 298.08 171.261 298.136 171.677 298.216V331C171.261 331.08 170.797 331.136 170.285 331.168C169.789 331.2 169.333 331.216 168.917 331.216C168.533 331.216 168.085 331.2 167.573 331.168C167.061 331.136 166.597 331.08 166.181 331V298.216ZM202.127 307.936C202.127 309.424 201.855 310.76 201.311 311.944C200.767 313.112 200.031 314.104 199.103 314.92C198.175 315.72 197.151 316.312 196.031 316.696C196.847 316.968 197.535 317.488 198.095 318.256C198.671 319.008 199.135 319.856 199.487 320.8L201.503 326.2C201.839 327.128 202.175 327.848 202.51 328.36C202.847 328.872 203.239 329.312 203.687 329.68C203.335 330.192 202.799 330.6 202.079 330.904C201.375 331.208 200.679 331.36 199.991 331.36C198.967 331.36 198.215 331.08 197.735 330.52C197.271 329.944 196.839 329.112 196.439 328.024L194.135 321.76C193.751 320.704 193.231 319.816 192.575 319.096C191.919 318.36 190.855 317.992 189.383 317.992H183.527V313.744C184.215 313.712 185.015 313.68 185.927 313.648C186.855 313.616 187.751 313.592 188.615 313.576C189.495 313.56 190.231 313.552 190.823 313.552C192.327 313.552 193.487 313.28 194.303 312.736C195.135 312.176 195.703 311.464 196.007 310.6C196.327 309.736 196.487 308.848 196.487 307.936C196.487 306.976 196.327 306.072 196.007 305.224C195.703 304.36 195.135 303.664 194.303 303.136C193.487 302.592 192.327 302.32 190.823 302.32C190.375 302.32 189.855 302.32 189.263 302.32C188.687 302.32 188.087 302.32 187.463 302.32C186.855 302.304 186.287 302.288 185.759 302.272V331C185.327 331.08 184.863 331.136 184.367 331.168C183.887 331.2 183.431 331.216 182.999 331.216C182.631 331.216 182.191 331.2 181.679 331.168C181.183 331.136 180.727 331.08 180.311 331V298.48L180.623 298.168C182.479 298.136 184.279 298.104 186.023 298.072C187.767 298.024 189.471 298 191.135 298C193.359 298 195.295 298.376 196.943 299.128C198.591 299.88 199.863 300.992 200.759 302.464C201.671 303.936 202.127 305.76 202.127 307.936ZM209.544 298.168C211.336 298.136 213.072 298.104 214.752 298.072C216.432 298.024 218.072 298 219.672 298C222.024 298 223.984 298.344 225.552 299.032C227.12 299.72 228.296 300.712 229.08 302.008C229.88 303.288 230.28 304.848 230.28 306.688C230.28 307.904 230.008 309.032 229.464 310.072C228.936 311.096 228.2 311.944 227.256 312.616C226.312 313.288 225.24 313.696 224.04 313.84V313.12C225.368 313.152 226.624 313.56 227.808 314.344C228.992 315.112 229.96 316.144 230.712 317.44C231.464 318.72 231.84 320.168 231.84 321.784C231.84 323.64 231.424 325.272 230.592 326.68C229.776 328.088 228.512 329.2 226.8 330.016C225.104 330.816 222.936 331.216 220.296 331.216C218.392 331.216 216.584 331.192 214.872 331.144C213.176 331.112 211.4 331.08 209.544 331.048L209.232 330.736V298.48L209.544 298.168ZM214.656 327.136C215.632 327.12 216.592 327.112 217.536 327.112C218.48 327.096 219.376 327.088 220.224 327.088C221.472 327.088 222.488 326.912 223.272 326.56C224.072 326.208 224.688 325.752 225.12 325.192C225.552 324.632 225.848 324.024 226.008 323.368C226.168 322.712 226.248 322.088 226.248 321.496C226.248 320.712 226.064 319.888 225.696 319.024C225.344 318.144 224.712 317.4 223.8 316.792C222.888 316.184 221.608 315.88 219.96 315.88H212.52V311.704H219.456C220.896 311.704 222 311.456 222.768 310.96C223.552 310.464 224.08 309.848 224.352 309.112C224.64 308.376 224.784 307.64 224.784 306.904C224.784 306.136 224.648 305.392 224.376 304.672C224.104 303.936 223.592 303.336 222.84 302.872C222.088 302.392 220.984 302.152 219.528 302.152C218.904 302.152 218.12 302.152 217.176 302.152C216.248 302.136 215.408 302.12 214.656 302.104V327.136Z" fill="black"/>
</svg>
