<svg width="202" height="192" viewBox="0 0 202 192" fill="none" xmlns="http://www.w3.org/2000/svg">
<rect width="202" height="192" rx="33" fill="#686868"/>
<line x1="102.5" x2="102.5" y2="192" stroke="black" stroke-width="3"/>
<line y1="94.5" x2="202" y2="94.5" stroke="black" stroke-width="3"/>
<path d="M47.4739 168.222V132.597H53.5194V168.222H47.4739ZM32.6841 153.432V147.386H68.3091V153.432H32.6841Z" fill="white"/>
<path d="M64.9724 71.576L35.5791 41.3135L40.7146 36.3255L70.1079 66.588L64.9724 71.576ZM40.2062 71.2151L35.2183 66.0797L65.4808 36.6864L70.4687 41.8218L40.2062 71.2151Z" fill="white"/>
<path d="M166.786 49.3182V56.8182H136.24V49.3182H166.786Z" fill="white"/>
<path d="M134.434 144.634V138.651H168.559V144.634H134.434ZM134.434 161.031V155.048H168.559V161.031H134.434Z" fill="white"/>
</svg>
